<svg width="469" height="444" viewBox="0 0 469 444" fill="none" xmlns="http://www.w3.org/2000/svg">
<mask id="mask0_400_2309" style="mask-type:luminance" maskUnits="userSpaceOnUse" x="68" y="64" width="333" height="315">
<path d="M351.75 332.425C416.505 271.228 416.505 172.007 351.75 110.809C286.995 49.6114 182.005 49.6114 117.25 110.809C52.4946 172.007 52.4946 271.228 117.25 332.425C182.005 393.623 286.995 393.623 351.75 332.425Z" fill="white"/>
</mask>
<g mask="url(#mask0_400_2309)">
<path d="M70.2922 320.197L67.293 323.035L78.7951 333.89L81.7944 331.052L70.2922 320.197Z" fill="#264065"/>
<path d="M67.2847 331.076L70.2881 333.91L81.7742 323.04L78.7708 320.205L67.2847 331.076Z" fill="#264065"/>
<path d="M70.3322 348.919L67.333 351.758L78.8352 362.613L81.8344 359.774L70.3322 348.919Z" fill="#264065"/>
<path d="M67.3091 359.783L70.3125 362.617L81.7986 351.747L78.7952 348.913L67.3091 359.783Z" fill="#264065"/>
<path d="M70.3469 375.619L67.3477 378.457L78.8498 389.312L81.849 386.474L70.3469 375.619Z" fill="#264065"/>
<path d="M67.3432 386.529L70.3467 389.363L81.8328 378.493L78.8294 375.659L67.3432 386.529Z" fill="#264065"/>
<path d="M70.2502 235.154L67.251 237.992L78.7531 248.847L81.7524 246.009L70.2502 235.154Z" fill="#264065"/>
<path d="M67.2222 246.001L70.2256 248.836L81.7117 237.966L78.7083 235.131L67.2222 246.001Z" fill="#264065"/>
<path d="M70.2502 263.857L67.251 266.695L78.7531 277.55L81.7524 274.712L70.2502 263.857Z" fill="#264065"/>
<path d="M67.2524 274.74L70.2559 277.574L81.742 266.704L78.7385 263.87L67.2524 274.74Z" fill="#264065"/>
<path d="M70.2795 290.56L67.2803 293.398L78.7824 304.253L81.7817 301.415L70.2795 290.56Z" fill="#264065"/>
<path d="M67.2681 301.443L70.2715 304.277L81.7576 293.407L78.7542 290.573L67.2681 301.443Z" fill="#264065"/>
<path d="M70.1858 150.052L67.1865 152.891L78.6887 163.746L81.6879 160.907L70.1858 150.052Z" fill="#264065"/>
<path d="M67.1724 160.939L70.1758 163.773L81.6619 152.903L78.6584 150.069L67.1724 160.939Z" fill="#264065"/>
<path d="M70.1858 178.81L67.1865 181.648L78.6887 192.503L81.6879 189.665L70.1858 178.81Z" fill="#264065"/>
<path d="M67.2124 189.662L70.2158 192.496L81.7019 181.626L78.6985 178.791L67.2124 189.662Z" fill="#264065"/>
<path d="M70.217 205.517L67.2178 208.355L78.7199 219.21L81.7192 216.372L70.217 205.517Z" fill="#264065"/>
<path d="M67.23 216.365L70.2334 219.199L81.7195 208.329L78.7161 205.495L67.23 216.365Z" fill="#264065"/>
<path d="M70.1047 65.0131L67.1055 67.8516L78.6076 78.7066L81.6069 75.8682L70.1047 65.0131Z" fill="#264065"/>
<path d="M67.1167 75.8765L70.1201 78.7109L81.6062 67.8407L78.6028 65.0063L67.1167 75.8765Z" fill="#264065"/>
<path d="M70.1467 93.7124L67.1475 96.5508L78.6496 107.406L81.6489 104.567L70.1467 93.7124Z" fill="#264065"/>
<path d="M67.1411 104.58L70.1445 107.414L81.6306 96.5439L78.6272 93.7094L67.1411 104.58Z" fill="#264065"/>
<path d="M70.1535 120.415L67.1543 123.254L78.6564 134.109L81.6557 131.271L70.1535 120.415Z" fill="#264065"/>
<path d="M67.1587 131.306L70.1621 134.141L81.6482 123.27L78.6448 120.436L67.1587 131.306Z" fill="#264065"/>
<path d="M102.249 320.197L99.25 323.035L110.752 333.89L113.751 331.052L102.249 320.197Z" fill="#264065"/>
<path d="M99.2329 331.052L102.236 333.887L113.722 323.017L110.719 320.182L99.2329 331.052Z" fill="#264065"/>
<path d="M132.477 320.169L129.478 323.008L140.98 333.863L143.979 331.024L132.477 320.169Z" fill="#264065"/>
<path d="M129.473 331.029L132.477 333.863L143.963 322.993L140.959 320.159L129.473 331.029Z" fill="#264065"/>
<path d="M162.662 320.146L159.663 322.984L171.165 333.839L174.164 331.001L162.662 320.146Z" fill="#264065"/>
<path d="M159.697 331.021L162.7 333.855L174.186 322.985L171.183 320.151L159.697 331.021Z" fill="#264065"/>
<path d="M192.888 320.15L189.889 322.988L201.391 333.843L204.39 331.005L192.888 320.15Z" fill="#264065"/>
<path d="M189.857 330.998L192.86 333.832L204.346 322.962L201.343 320.127L189.857 330.998Z" fill="#264065"/>
<path d="M223.075 320.103L220.076 322.941L231.578 333.796L234.578 330.958L223.075 320.103Z" fill="#264065"/>
<path d="M220.082 330.986L223.085 333.82L234.571 322.95L231.568 320.116L220.082 330.986Z" fill="#264065"/>
<path d="M102.291 348.873L99.292 351.711L110.794 362.566L113.793 359.728L102.291 348.873Z" fill="#264065"/>
<path d="M99.2573 359.775L102.261 362.609L113.747 351.739L110.743 348.905L99.2573 359.775Z" fill="#264065"/>
<path d="M132.477 348.869L129.478 351.707L140.98 362.562L143.979 359.724L132.477 348.869Z" fill="#264065"/>
<path d="M129.457 359.767L132.46 362.602L143.946 351.731L140.943 348.897L129.457 359.767Z" fill="#264065"/>
<path d="M162.702 348.884L159.703 351.723L171.205 362.578L174.205 359.739L162.702 348.884Z" fill="#264065"/>
<path d="M159.698 359.744L162.701 362.578L174.187 351.708L171.184 348.873L159.698 359.744Z" fill="#264065"/>
<path d="M192.905 348.849L189.906 351.688L201.408 362.543L204.408 359.704L192.905 348.849Z" fill="#264065"/>
<path d="M189.881 359.701L192.885 362.535L204.371 351.665L201.367 348.83L189.881 359.701Z" fill="#264065"/>
<path d="M223.116 348.849L220.117 351.688L231.619 362.543L234.619 359.704L223.116 348.849Z" fill="#264065"/>
<path d="M220.082 359.693L223.085 362.527L234.571 351.657L231.568 348.823L220.082 359.693Z" fill="#264065"/>
<path d="M102.298 375.599L99.2988 378.438L110.801 389.293L113.8 386.454L102.298 375.599Z" fill="#264065"/>
<path d="M99.2964 386.482L102.3 389.316L113.786 378.446L110.782 375.612L99.2964 386.482Z" fill="#264065"/>
<path d="M132.508 375.599L129.509 378.438L141.011 389.293L144.01 386.454L132.508 375.599Z" fill="#264065"/>
<path d="M129.473 386.474L132.477 389.309L143.963 378.438L140.959 375.604L129.473 386.474Z" fill="#264065"/>
<path d="M162.71 375.591L159.711 378.43L171.213 389.285L174.212 386.446L162.71 375.591Z" fill="#264065"/>
<path d="M159.713 386.451L162.717 389.285L174.203 378.415L171.199 375.58L159.713 386.451Z" fill="#264065"/>
<path d="M192.92 375.568L189.921 378.406L201.423 389.261L204.422 386.423L192.92 375.568Z" fill="#264065"/>
<path d="M189.914 386.443L192.917 389.277L204.403 378.407L201.4 375.573L189.914 386.443Z" fill="#264065"/>
<path d="M223.122 375.552L220.123 378.391L231.625 389.246L234.624 386.407L223.122 375.552Z" fill="#264065"/>
<path d="M220.097 386.396L223.101 389.23L234.587 378.36L231.583 375.526L220.097 386.396Z" fill="#264065"/>
<path d="M102.186 235.13L99.1865 237.969L110.689 248.824L113.688 245.985L102.186 235.13Z" fill="#264065"/>
<path d="M99.1938 245.994L102.197 248.828L113.683 237.958L110.68 235.123L99.1938 245.994Z" fill="#264065"/>
<path d="M132.412 235.091L129.413 237.93L140.915 248.785L143.914 245.946L132.412 235.091Z" fill="#264065"/>
<path d="M129.401 245.97L132.404 248.805L143.89 237.934L140.887 235.1L129.401 245.97Z" fill="#264065"/>
<path d="M162.621 235.087L159.622 237.926L171.124 248.781L174.123 245.942L162.621 235.087Z" fill="#264065"/>
<path d="M159.6 245.959L162.604 248.793L174.09 237.923L171.086 235.088L159.6 245.959Z" fill="#264065"/>
<path d="M192.809 235.044L189.81 237.883L201.312 248.738L204.311 245.899L192.809 235.044Z" fill="#264065"/>
<path d="M189.825 245.931L192.828 248.766L204.314 237.895L201.311 235.061L189.825 245.931Z" fill="#264065"/>
<path d="M223.019 235.04L220.02 237.879L231.522 248.734L234.521 245.896L223.019 235.04Z" fill="#264065"/>
<path d="M220.026 245.923L223.029 248.758L234.515 237.888L231.512 235.053L220.026 245.923Z" fill="#264065"/>
<path d="M102.226 263.849L99.2266 266.688L110.729 277.543L113.728 274.704L102.226 263.849Z" fill="#264065"/>
<path d="M99.2173 274.697L102.221 277.531L113.707 266.661L110.703 263.827L99.2173 274.697Z" fill="#264065"/>
<path d="M132.429 263.81L129.43 266.648L140.932 277.503L143.931 274.665L132.429 263.81Z" fill="#264065"/>
<path d="M129.423 274.673L132.427 277.508L143.913 266.638L140.909 263.803L129.423 274.673Z" fill="#264065"/>
<path d="M162.639 263.787L159.64 266.625L171.142 277.48L174.141 274.642L162.639 263.787Z" fill="#264065"/>
<path d="M159.624 274.666L162.627 277.5L174.113 266.63L171.11 263.795L159.624 274.666Z" fill="#264065"/>
<path d="M192.849 263.783L189.85 266.621L201.352 277.476L204.351 274.638L192.849 263.783Z" fill="#264065"/>
<path d="M189.825 274.654L192.828 277.488L204.314 266.618L201.311 263.784L189.825 274.654Z" fill="#264065"/>
<path d="M223.034 263.759L220.035 266.598L231.537 277.453L234.537 274.614L223.034 263.759Z" fill="#264065"/>
<path d="M220.048 274.646L223.052 277.48L234.538 266.61L231.534 263.776L220.048 274.646Z" fill="#264065"/>
<path d="M102.232 290.576L99.2324 293.414L110.735 304.269L113.734 301.431L102.232 290.576Z" fill="#264065"/>
<path d="M99.2319 301.4L102.235 304.234L113.721 293.364L110.718 290.53L99.2319 301.4Z" fill="#264065"/>
<path d="M132.443 290.529L129.443 293.367L140.946 304.222L143.945 301.384L132.443 290.529Z" fill="#264065"/>
<path d="M129.457 301.392L132.46 304.227L143.946 293.356L140.943 290.522L129.457 301.392Z" fill="#264065"/>
<path d="M162.668 290.513L159.669 293.352L171.171 304.207L174.17 301.368L162.668 290.513Z" fill="#264065"/>
<path d="M159.639 301.369L162.643 304.203L174.129 293.333L171.125 290.498L159.639 301.369Z" fill="#264065"/>
<path d="M192.856 290.49L189.856 293.328L201.359 304.183L204.358 301.345L192.856 290.49Z" fill="#264065"/>
<path d="M189.841 301.361L192.845 304.195L204.331 293.325L201.327 290.491L189.841 301.361Z" fill="#264065"/>
<path d="M223.066 290.466L220.066 293.305L231.569 304.16L234.568 301.321L223.066 290.466Z" fill="#264065"/>
<path d="M220.065 301.353L223.068 304.188L234.554 293.317L231.551 290.483L220.065 301.353Z" fill="#264065"/>
<path d="M102.146 150.052L99.1465 152.891L110.649 163.746L113.648 160.907L102.146 150.052Z" fill="#264065"/>
<path d="M99.144 160.912L102.147 163.746L113.634 152.876L110.63 150.041L99.144 160.912Z" fill="#264065"/>
<path d="M132.331 150.048L129.332 152.887L140.834 163.742L143.833 160.903L132.331 150.048Z" fill="#264065"/>
<path d="M129.321 160.904L132.324 163.738L143.81 152.868L140.807 150.034L129.321 160.904Z" fill="#264065"/>
<path d="M162.542 150.029L159.543 152.867L171.045 163.722L174.044 160.884L162.542 150.029Z" fill="#264065"/>
<path d="M159.545 160.896L162.549 163.73L174.035 152.86L171.032 150.026L159.545 160.896Z" fill="#264065"/>
<path d="M192.743 149.986L189.744 152.824L201.246 163.679L204.246 160.841L192.743 149.986Z" fill="#264065"/>
<path d="M189.728 160.869L192.731 163.703L204.218 152.833L201.214 149.998L189.728 160.869Z" fill="#264065"/>
<path d="M222.971 149.982L219.972 152.82L231.474 163.675L234.473 160.837L222.971 149.982Z" fill="#264065"/>
<path d="M219.945 160.849L222.948 163.684L234.434 152.813L231.431 149.979L219.945 160.849Z" fill="#264065"/>
<path d="M102.162 178.767L99.1631 181.605L110.665 192.461L113.664 189.622L102.162 178.767Z" fill="#264065"/>
<path d="M99.144 189.634L102.147 192.469L113.634 181.599L110.63 178.764L99.144 189.634Z" fill="#264065"/>
<path d="M132.371 178.744L129.372 181.582L140.874 192.437L143.873 189.599L132.371 178.744Z" fill="#264065"/>
<path d="M129.369 189.626L132.372 192.461L143.858 181.591L140.855 178.756L129.369 189.626Z" fill="#264065"/>
<path d="M162.558 178.744L159.559 181.582L171.061 192.437L174.06 189.599L162.558 178.744Z" fill="#264065"/>
<path d="M159.544 189.619L162.548 192.453L174.034 181.583L171.031 178.748L159.544 189.619Z" fill="#264065"/>
<path d="M192.784 178.681L189.785 181.52L201.287 192.375L204.287 189.536L192.784 178.681Z" fill="#264065"/>
<path d="M189.751 189.572L192.755 192.406L204.241 181.536L201.238 178.702L189.751 189.572Z" fill="#264065"/>
<path d="M222.971 178.658L219.972 181.496L231.474 192.351L234.473 189.513L222.971 178.658Z" fill="#264065"/>
<path d="M219.977 189.564L222.98 192.398L234.467 181.528L231.463 178.694L219.977 189.564Z" fill="#264065"/>
<path d="M102.176 205.49L99.1768 208.328L110.679 219.183L113.678 216.345L102.176 205.49Z" fill="#264065"/>
<path d="M99.1772 216.357L102.181 219.191L113.667 208.321L110.663 205.487L99.1772 216.357Z" fill="#264065"/>
<path d="M132.378 205.451L129.379 208.289L140.881 219.144L143.88 216.306L132.378 205.451Z" fill="#264065"/>
<path d="M129.361 216.334L132.364 219.168L143.85 208.298L140.847 205.463L129.361 216.334Z" fill="#264065"/>
<path d="M162.589 205.427L159.59 208.266L171.092 219.121L174.091 216.282L162.589 205.427Z" fill="#264065"/>
<path d="M159.562 216.326L162.565 219.16L174.052 208.29L171.048 205.455L159.562 216.326Z" fill="#264065"/>
<path d="M192.776 205.404L189.776 208.242L201.279 219.097L204.278 216.259L192.776 205.404Z" fill="#264065"/>
<path d="M189.809 216.294L192.812 219.129L204.299 208.259L201.295 205.424L189.809 216.294Z" fill="#264065"/>
<path d="M223.001 205.388L220.002 208.227L231.504 219.082L234.503 216.243L223.001 205.388Z" fill="#264065"/>
<path d="M219.993 216.271L222.996 219.105L234.482 208.235L231.479 205.401L219.993 216.271Z" fill="#264065"/>
<path d="M102.065 64.9858L99.0654 67.8242L110.568 78.6793L113.567 75.8408L102.065 64.9858Z" fill="#264065"/>
<path d="M99.0649 75.8648L102.068 78.6992L113.554 67.829L110.551 64.9946L99.0649 75.8648Z" fill="#264065"/>
<path d="M132.268 64.9467L129.269 67.7852L140.771 78.6402L143.77 75.8018L132.268 64.9467Z" fill="#264065"/>
<path d="M129.273 75.8413L132.276 78.6758L143.762 67.8056L140.759 64.9711L129.273 75.8413Z" fill="#264065"/>
<path d="M162.494 64.9389L159.495 67.7773L170.997 78.6324L173.997 75.794L162.494 64.9389Z" fill="#264065"/>
<path d="M159.489 75.8179L162.492 78.6523L173.978 67.7821L170.975 64.9477L159.489 75.8179Z" fill="#264065"/>
<path d="M192.703 64.9389L189.704 67.7773L201.206 78.6324L204.205 75.794L192.703 64.9389Z" fill="#264065"/>
<path d="M189.712 75.7905L192.716 78.625L204.202 67.7548L201.198 64.9203L189.712 75.7905Z" fill="#264065"/>
<path d="M222.891 64.9194L219.892 67.7578L231.394 78.6129L234.393 75.7744L222.891 64.9194Z" fill="#264065"/>
<path d="M219.914 75.7827L222.917 78.6172L234.403 67.747L231.4 64.9125L219.914 75.7827Z" fill="#264065"/>
<path d="M102.082 93.6811L99.083 96.5195L110.585 107.375L113.584 104.536L102.082 93.6811Z" fill="#264065"/>
<path d="M99.0893 104.568L102.093 107.402L113.579 96.5321L110.575 93.6977L99.0893 104.568Z" fill="#264065"/>
<path d="M132.291 93.6811L129.292 96.5195L140.794 107.375L143.793 104.536L132.291 93.6811Z" fill="#264065"/>
<path d="M129.313 104.56L132.316 107.395L143.803 96.5243L140.799 93.6899L129.313 104.56Z" fill="#264065"/>
<path d="M162.518 93.6421L159.519 96.4805L171.021 107.336L174.02 104.497L162.518 93.6421Z" fill="#264065"/>
<path d="M159.496 104.537L162.499 107.371L173.985 96.5009L170.982 93.6664L159.496 104.537Z" fill="#264065"/>
<path d="M192.721 93.6342L189.722 96.4727L201.224 107.328L204.223 104.489L192.721 93.6342Z" fill="#264065"/>
<path d="M189.713 104.513L192.717 107.348L204.203 96.4774L201.199 93.643L189.713 104.513Z" fill="#264065"/>
<path d="M222.931 93.6342L219.932 96.4727L231.434 107.328L234.433 104.489L222.931 93.6342Z" fill="#264065"/>
<path d="M219.938 104.505L222.941 107.34L234.428 96.4696L231.424 93.6352L219.938 104.505Z" fill="#264065"/>
<path d="M102.113 120.412L99.1143 123.25L110.616 134.105L113.616 131.267L102.113 120.412Z" fill="#264065"/>
<path d="M99.1059 131.275L102.109 134.109L113.595 123.239L110.592 120.405L99.1059 131.275Z" fill="#264065"/>
<path d="M132.322 120.388L129.323 123.227L140.825 134.082L143.825 131.243L132.322 120.388Z" fill="#264065"/>
<path d="M129.33 131.267L132.333 134.102L143.819 123.231L140.816 120.397L129.33 131.267Z" fill="#264065"/>
<path d="M162.508 120.365L159.509 123.203L171.011 134.058L174.01 131.22L162.508 120.365Z" fill="#264065"/>
<path d="M159.529 131.259L162.532 134.094L174.018 123.224L171.015 120.389L159.529 131.259Z" fill="#264065"/>
<path d="M192.735 120.345L189.735 123.184L201.238 134.039L204.237 131.2L192.735 120.345Z" fill="#264065"/>
<path d="M189.713 131.232L192.717 134.066L204.203 123.196L201.199 120.362L189.713 131.232Z" fill="#264065"/>
<path d="M222.938 120.341L219.938 123.18L231.441 134.035L234.44 131.196L222.938 120.341Z" fill="#264065"/>
<path d="M219.954 131.189L222.957 134.023L234.443 123.153L231.44 120.319L219.954 131.189Z" fill="#264065"/>
<path d="M250.289 320.091L247.29 322.93L258.792 333.785L261.791 330.946L250.289 320.091Z" fill="#264065"/>
<path d="M247.286 330.966L250.289 333.801L261.775 322.931L258.772 320.096L247.286 330.966Z" fill="#264065"/>
<path d="M280.499 320.068L277.5 322.906L289.002 333.761L292.001 330.923L280.499 320.068Z" fill="#264065"/>
<path d="M277.51 330.959L280.514 333.793L292 322.923L288.996 320.088L277.51 330.959Z" fill="#264065"/>
<path d="M310.742 320.068L307.743 322.906L319.245 333.761L322.245 330.923L310.742 320.068Z" fill="#264065"/>
<path d="M307.71 330.919L310.714 333.754L322.2 322.884L319.197 320.049L307.71 330.919Z" fill="#264065"/>
<path d="M340.928 320.044L337.929 322.883L349.431 333.738L352.43 330.899L340.928 320.044Z" fill="#264065"/>
<path d="M337.909 330.912L340.912 333.746L352.398 322.876L349.395 320.041L337.909 330.912Z" fill="#264065"/>
<path d="M371.138 319.998L368.139 322.836L379.641 333.691L382.64 330.853L371.138 319.998Z" fill="#264065"/>
<path d="M368.158 330.9L371.161 333.734L382.647 322.864L379.644 320.03L368.158 330.9Z" fill="#264065"/>
<path d="M250.33 348.81L247.331 351.648L258.833 362.503L261.832 359.665L250.33 348.81Z" fill="#264065"/>
<path d="M247.31 359.689L250.313 362.523L261.8 351.653L258.796 348.819L247.31 359.689Z" fill="#264065"/>
<path d="M280.516 348.787L277.517 351.625L289.019 362.48L292.018 359.642L280.516 348.787Z" fill="#264065"/>
<path d="M277.509 359.681L280.513 362.516L291.999 351.645L288.995 348.811L277.509 359.681Z" fill="#264065"/>
<path d="M310.742 348.748L307.743 351.586L319.245 362.441L322.245 359.603L310.742 348.748Z" fill="#264065"/>
<path d="M307.717 359.638L310.721 362.473L322.207 351.602L319.203 348.768L307.717 359.638Z" fill="#264065"/>
<path d="M340.967 348.74L337.968 351.578L349.47 362.433L352.469 359.595L340.967 348.74Z" fill="#264065"/>
<path d="M337.957 359.611L340.96 362.445L352.446 351.575L349.443 348.741L337.957 359.611Z" fill="#264065"/>
<path d="M371.155 348.74L368.155 351.578L379.657 362.433L382.657 359.595L371.155 348.74Z" fill="#264065"/>
<path d="M368.157 359.607L371.16 362.441L382.646 351.571L379.643 348.737L368.157 359.607Z" fill="#264065"/>
<path d="M250.336 375.537L247.337 378.375L258.839 389.23L261.838 386.392L250.336 375.537Z" fill="#264065"/>
<path d="M247.326 386.396L250.329 389.23L261.815 378.36L258.812 375.526L247.326 386.396Z" fill="#264065"/>
<path d="M280.547 375.494L277.548 378.332L289.05 389.187L292.049 386.349L280.547 375.494Z" fill="#264065"/>
<path d="M277.526 386.388L280.529 389.223L292.015 378.352L289.012 375.518L277.526 386.388Z" fill="#264065"/>
<path d="M310.756 375.447L307.757 378.285L319.259 389.14L322.258 386.302L310.756 375.447Z" fill="#264065"/>
<path d="M307.774 386.357L310.777 389.191L322.263 378.321L319.26 375.487L307.774 386.357Z" fill="#264065"/>
<path d="M340.958 375.431L337.959 378.27L349.461 389.125L352.46 386.286L340.958 375.431Z" fill="#264065"/>
<path d="M337.957 386.333L340.96 389.168L352.446 378.298L349.443 375.463L337.957 386.333Z" fill="#264065"/>
<path d="M371.186 375.447L368.187 378.285L379.689 389.14L382.688 386.302L371.186 375.447Z" fill="#264065"/>
<path d="M368.15 386.314L371.153 389.148L382.639 378.278L379.636 375.444L368.15 386.314Z" fill="#264065"/>
<path d="M250.248 234.994L247.249 237.832L258.751 248.687L261.75 245.849L250.248 234.994Z" fill="#264065"/>
<path d="M247.237 245.908L250.24 248.742L261.726 237.872L258.723 235.038L247.237 245.908Z" fill="#264065"/>
<path d="M280.451 235.009L277.452 237.848L288.954 248.703L291.954 245.864L280.451 235.009Z" fill="#264065"/>
<path d="M277.454 245.865L280.457 248.699L291.943 237.829L288.94 234.995L277.454 245.865Z" fill="#264065"/>
<path d="M310.661 234.986L307.662 237.824L319.164 248.679L322.164 245.841L310.661 234.986Z" fill="#264065"/>
<path d="M307.63 245.88L310.634 248.715L322.12 237.845L319.116 235.01L307.63 245.88Z" fill="#264065"/>
<path d="M340.847 234.962L337.848 237.801L349.35 248.656L352.349 245.817L340.847 234.962Z" fill="#264065"/>
<path d="M337.853 245.849L340.856 248.684L352.343 237.813L349.339 234.979L337.853 245.849Z" fill="#264065"/>
<path d="M371.075 234.943L368.076 237.781L379.578 248.636L382.578 245.798L371.075 234.943Z" fill="#264065"/>
<path d="M368.062 245.822L371.065 248.656L382.552 237.786L379.548 234.952L368.062 245.822Z" fill="#264065"/>
<path d="M250.248 263.728L247.249 266.566L258.751 277.421L261.75 274.583L250.248 263.728Z" fill="#264065"/>
<path d="M247.253 274.626L250.257 277.461L261.743 266.591L258.739 263.756L247.253 274.626Z" fill="#264065"/>
<path d="M280.475 263.708L277.476 266.547L288.978 277.402L291.977 274.564L280.475 263.708Z" fill="#264065"/>
<path d="M277.46 274.603L280.464 277.438L291.95 266.567L288.947 263.733L277.46 274.603Z" fill="#264065"/>
<path d="M310.678 263.705L307.679 266.543L319.181 277.398L322.18 274.56L310.678 263.705Z" fill="#264065"/>
<path d="M307.676 274.58L310.68 277.414L322.166 266.544L319.162 263.709L307.676 274.58Z" fill="#264065"/>
<path d="M340.887 263.681L337.888 266.52L349.39 277.375L352.389 274.536L340.887 263.681Z" fill="#264065"/>
<path d="M337.877 274.572L340.881 277.406L352.367 266.536L349.364 263.702L337.877 274.572Z" fill="#264065"/>
<path d="M371.092 263.642L368.093 266.48L379.595 277.335L382.594 274.497L371.092 263.642Z" fill="#264065"/>
<path d="M368.084 274.529L371.088 277.363L382.574 266.493L379.571 263.659L368.084 274.529Z" fill="#264065"/>
<path d="M250.279 290.455L247.279 293.293L258.781 304.148L261.781 301.31L250.279 290.455Z" fill="#264065"/>
<path d="M247.247 301.33L250.25 304.164L261.736 293.294L258.733 290.459L247.247 301.33Z" fill="#264065"/>
<path d="M280.483 290.415L277.483 293.254L288.986 304.109L291.985 301.271L280.483 290.415Z" fill="#264065"/>
<path d="M277.454 301.306L280.457 304.141L291.943 293.27L288.94 290.436L277.454 301.306Z" fill="#264065"/>
<path d="M310.709 290.412L307.71 293.25L319.212 304.105L322.211 301.267L310.709 290.412Z" fill="#264065"/>
<path d="M307.693 301.287L310.696 304.121L322.182 293.251L319.179 290.416L307.693 301.287Z" fill="#264065"/>
<path d="M340.895 290.388L337.896 293.227L349.398 304.082L352.397 301.243L340.895 290.388Z" fill="#264065"/>
<path d="M337.894 301.279L340.897 304.113L352.384 293.243L349.38 290.409L337.894 301.279Z" fill="#264065"/>
<path d="M371.105 290.365L368.105 293.203L379.608 304.058L382.607 301.22L371.105 290.365Z" fill="#264065"/>
<path d="M368.118 301.248L371.121 304.082L382.607 293.212L379.604 290.377L368.118 301.248Z" fill="#264065"/>
<path d="M250.185 149.97L247.186 152.809L258.688 163.664L261.687 160.825L250.185 149.97Z" fill="#264065"/>
<path d="M247.173 160.83L250.177 163.664L261.663 152.794L258.659 149.959L247.173 160.83Z" fill="#264065"/>
<path d="M280.37 149.923L277.371 152.762L288.873 163.617L291.872 160.778L280.37 149.923Z" fill="#264065"/>
<path d="M277.374 160.822L280.377 163.656L291.863 152.786L288.86 149.952L277.374 160.822Z" fill="#264065"/>
<path d="M310.598 149.908L307.599 152.746L319.101 163.601L322.1 160.763L310.598 149.908Z" fill="#264065"/>
<path d="M307.605 160.798L310.608 163.633L322.095 152.763L319.091 149.928L307.605 160.798Z" fill="#264065"/>
<path d="M340.807 149.884L337.808 152.723L349.31 163.578L352.309 160.739L340.807 149.884Z" fill="#264065"/>
<path d="M337.805 160.791L340.809 163.625L352.295 152.755L349.291 149.92L337.805 160.791Z" fill="#264065"/>
<path d="M371.017 149.88L368.018 152.719L379.52 163.574L382.519 160.735L371.017 149.88Z" fill="#264065"/>
<path d="M367.982 160.779L370.985 163.613L382.471 152.743L379.468 149.909L367.982 160.779Z" fill="#264065"/>
<path d="M250.201 178.665L247.202 181.504L258.704 192.359L261.704 189.521L250.201 178.665Z" fill="#264065"/>
<path d="M247.198 189.552L250.201 192.387L261.687 181.517L258.684 178.682L247.198 189.552Z" fill="#264065"/>
<path d="M280.41 178.642L277.411 181.48L288.913 192.336L291.913 189.497L280.41 178.642Z" fill="#264065"/>
<path d="M277.421 189.521L280.425 192.355L291.911 181.485L288.907 178.651L277.421 189.521Z" fill="#264065"/>
<path d="M310.62 178.642L307.621 181.48L319.123 192.336L322.122 189.497L310.62 178.642Z" fill="#264065"/>
<path d="M307.598 189.517L310.602 192.352L322.088 181.481L319.084 178.647L307.598 189.517Z" fill="#264065"/>
<path d="M340.823 178.603L337.824 181.441L349.326 192.296L352.326 189.458L340.823 178.603Z" fill="#264065"/>
<path d="M337.805 189.494L340.809 192.328L352.295 181.458L349.291 178.623L337.805 189.494Z" fill="#264065"/>
<path d="M371.034 178.58L368.035 181.418L379.537 192.273L382.537 189.435L371.034 178.58Z" fill="#264065"/>
<path d="M368.029 189.482L371.032 192.316L382.518 181.446L379.515 178.612L368.029 189.482Z" fill="#264065"/>
<path d="M250.232 205.373L247.232 208.211L258.735 219.066L261.734 216.228L250.232 205.373Z" fill="#264065"/>
<path d="M247.238 216.236L250.241 219.07L261.727 208.2L258.724 205.366L247.238 216.236Z" fill="#264065"/>
<path d="M280.442 205.369L277.442 208.207L288.945 219.062L291.944 216.224L280.442 205.369Z" fill="#264065"/>
<path d="M277.437 216.228L280.44 219.062L291.927 208.192L288.923 205.358L277.437 216.228Z" fill="#264065"/>
<path d="M310.627 205.369L307.628 208.207L319.13 219.062L322.129 216.224L310.627 205.369Z" fill="#264065"/>
<path d="M307.614 216.244L310.617 219.078L322.103 208.208L319.1 205.373L307.614 216.244Z" fill="#264065"/>
<path d="M340.854 205.31L337.854 208.148L349.357 219.003L352.356 216.165L340.854 205.31Z" fill="#264065"/>
<path d="M337.821 216.197L340.824 219.031L352.31 208.161L349.307 205.327L337.821 216.197Z" fill="#264065"/>
<path d="M371.041 205.306L368.042 208.145L379.544 219L382.543 216.161L371.041 205.306Z" fill="#264065"/>
<path d="M368.046 216.189L371.05 219.023L382.536 208.153L379.532 205.319L368.046 216.189Z" fill="#264065"/>
<path d="M250.127 64.9077L247.128 67.7461L258.63 78.6011L261.629 75.7627L250.127 64.9077Z" fill="#264065"/>
<path d="M247.117 75.7866L250.12 78.6211L261.606 67.7509L258.603 64.9164L247.117 75.7866Z" fill="#264065"/>
<path d="M280.329 64.8686L277.33 67.707L288.832 78.5621L291.831 75.7236L280.329 64.8686Z" fill="#264065"/>
<path d="M277.324 75.7397L280.327 78.5742L291.813 67.704L288.81 64.8695L277.324 75.7397Z" fill="#264065"/>
<path d="M310.517 64.8452L307.518 67.6836L319.02 78.5386L322.019 75.7002L310.517 64.8452Z" fill="#264065"/>
<path d="M307.525 75.732L310.528 78.5664L322.014 67.6962L319.011 64.8618L307.525 75.732Z" fill="#264065"/>
<path d="M340.726 64.8217L337.727 67.6602L349.229 78.5152L352.228 75.6768L340.726 64.8217Z" fill="#264065"/>
<path d="M337.749 75.7241L340.752 78.5586L352.238 67.6884L349.235 64.8539L337.749 75.7241Z" fill="#264065"/>
<path d="M370.969 64.8256L367.97 67.6641L379.472 78.5191L382.471 75.6807L370.969 64.8256Z" fill="#264065"/>
<path d="M367.972 75.6655L370.976 78.5L382.462 67.6298L379.458 64.7953L367.972 75.6655Z" fill="#264065"/>
<path d="M250.144 93.603L247.145 96.4414L258.647 107.296L261.646 104.458L250.144 93.603Z" fill="#264065"/>
<path d="M247.14 104.486L250.144 107.32L261.63 96.4501L258.626 93.6156L247.14 104.486Z" fill="#264065"/>
<path d="M280.369 93.5874L277.37 96.4258L288.872 107.281L291.871 104.442L280.369 93.5874Z" fill="#264065"/>
<path d="M277.325 104.466L280.328 107.301L291.814 96.4306L288.811 93.5961L277.325 104.466Z" fill="#264065"/>
<path d="M310.533 93.5405L307.534 96.3789L319.036 107.234L322.036 104.396L310.533 93.5405Z" fill="#264065"/>
<path d="M307.549 104.455L310.553 107.289L322.039 96.4189L319.035 93.5844L307.549 104.455Z" fill="#264065"/>
<path d="M340.743 93.5405L337.744 96.3789L349.246 107.234L352.246 104.396L340.743 93.5405Z" fill="#264065"/>
<path d="M337.773 104.427L340.776 107.262L352.262 96.3915L349.259 93.557L337.773 104.427Z" fill="#264065"/>
<path d="M370.951 93.5405L367.952 96.3789L379.454 107.234L382.454 104.396L370.951 93.5405Z" fill="#264065"/>
<path d="M367.949 104.443L370.952 107.277L382.438 96.4071L379.435 93.5727L367.949 104.443Z" fill="#264065"/>
<path d="M250.151 120.31L247.151 123.148L258.654 134.003L261.653 131.165L250.151 120.31Z" fill="#264065"/>
<path d="M247.158 131.193L250.161 134.027L261.647 123.157L258.644 120.323L247.158 131.193Z" fill="#264065"/>
<path d="M280.362 120.31L277.362 123.148L288.864 134.003L291.864 131.165L280.362 120.31Z" fill="#264065"/>
<path d="M277.358 131.185L280.361 134.02L291.847 123.149L288.844 120.315L277.358 131.185Z" fill="#264065"/>
<path d="M310.564 120.248L307.564 123.086L319.067 133.941L322.066 131.103L310.564 120.248Z" fill="#264065"/>
<path d="M307.589 131.138L310.593 133.973L322.079 123.102L319.075 120.268L307.589 131.138Z" fill="#264065"/>
<path d="M340.775 120.248L337.775 123.086L349.278 133.941L352.277 131.103L340.775 120.248Z" fill="#264065"/>
<path d="M337.766 131.134L340.77 133.969L352.256 123.099L349.252 120.264L337.766 131.134Z" fill="#264065"/>
<path d="M370.984 120.248L367.984 123.086L379.487 133.941L382.486 131.103L370.984 120.248Z" fill="#264065"/>
<path d="M367.966 131.15L370.97 133.984L382.456 123.114L379.452 120.28L367.966 131.15Z" fill="#264065"/>
<path d="M403.113 320.005L400.113 322.844L411.615 333.699L414.615 330.86L403.113 320.005Z" fill="#264065"/>
<path d="M400.088 330.861L403.092 333.695L414.578 322.825L411.574 319.991L400.088 330.861Z" fill="#264065"/>
<path d="M403.114 348.716L400.115 351.555L411.617 362.41L414.617 359.571L403.114 348.716Z" fill="#264065"/>
<path d="M400.106 359.599L403.109 362.434L414.595 351.563L411.592 348.729L400.106 359.599Z" fill="#264065"/>
<path d="M403.121 375.423L400.122 378.262L411.624 389.117L414.623 386.278L403.121 375.423Z" fill="#264065"/>
<path d="M400.123 386.306L403.126 389.141L414.612 378.27L411.609 375.436L400.123 386.306Z" fill="#264065"/>
<path d="M403.031 234.919L400.032 237.758L411.534 248.613L414.534 245.774L403.031 234.919Z" fill="#264065"/>
<path d="M400.008 245.814L403.012 248.648L414.498 237.778L411.494 234.944L400.008 245.814Z" fill="#264065"/>
<path d="M403.049 263.638L400.05 266.477L411.552 277.332L414.551 274.493L403.049 263.638Z" fill="#264065"/>
<path d="M400.056 274.517L403.06 277.352L414.546 266.481L411.542 263.647L400.056 274.517Z" fill="#264065"/>
<path d="M403.079 290.345L400.08 293.184L411.582 304.039L414.581 301.2L403.079 290.345Z" fill="#264065"/>
<path d="M400.072 301.224L403.075 304.059L414.561 293.188L411.558 290.354L400.072 301.224Z" fill="#264065"/>
<path d="M402.952 149.857L399.953 152.695L411.455 163.55L414.455 160.712L402.952 149.857Z" fill="#264065"/>
<path d="M399.954 160.748L402.957 163.582L414.443 152.712L411.44 149.877L399.954 160.748Z" fill="#264065"/>
<path d="M402.969 178.576L399.97 181.414L411.472 192.269L414.471 189.431L402.969 178.576Z" fill="#264065"/>
<path d="M399.954 189.474L402.957 192.309L414.443 181.438L411.44 178.604L399.954 189.474Z" fill="#264065"/>
<path d="M403.001 205.283L400.002 208.121L411.504 218.976L414.503 216.138L403.001 205.283Z" fill="#264065"/>
<path d="M399.971 216.181L402.975 219.016L414.461 208.145L411.457 205.311L399.971 216.181Z" fill="#264065"/>
<path d="M402.905 64.7944L399.905 67.6328L411.407 78.4879L414.407 75.6494L402.905 64.7944Z" fill="#264065"/>
<path d="M399.896 75.6773L402.899 78.5117L414.386 67.6415L411.382 64.8071L399.896 75.6773Z" fill="#264065"/>
<path d="M402.945 93.5171L399.945 96.3555L411.447 107.211L414.447 104.372L402.945 93.5171Z" fill="#264065"/>
<path d="M399.92 104.38L402.924 107.215L414.41 96.3446L411.407 93.5102L399.92 104.38Z" fill="#264065"/>
<path d="M402.952 120.224L399.953 123.062L411.455 133.918L414.455 131.079L402.952 120.224Z" fill="#264065"/>
<path d="M399.937 131.087L402.94 133.922L414.427 123.052L411.423 120.217L399.937 131.087Z" fill="#264065"/>
</g>
</svg>
