<svg width="40" height="38" viewBox="0 0 40 38" fill="none" xmlns="http://www.w3.org/2000/svg">
<path d="M38.2031 14.72H36.0562C36.8555 13.3928 37.2636 11.8971 37.2404 10.3807C37.2171 8.86423 36.7632 7.37965 35.9235 6.07373C35.0839 4.76782 33.8876 3.68581 32.453 2.93472C31.0184 2.18362 29.3951 1.78946 27.7437 1.79122C26.2274 1.79562 24.7339 2.13185 23.3873 2.77204C22.0406 3.41223 20.8794 4.33795 20 5.47248C18.5991 3.65334 16.4929 2.39596 14.1139 1.95863C11.735 1.52131 9.26405 1.93725 7.20866 3.12102C5.15328 4.30478 3.66955 6.16647 3.06228 8.32364C2.45501 10.4808 2.77032 12.7697 3.94344 14.72H1.79688C1.32049 14.7205 0.863786 14.8945 0.526932 15.2039C0.190078 15.5132 0.000578888 15.9327 0 16.3702L0 34.6324C0.000578888 35.0699 0.190078 35.4893 0.526932 35.7987C0.863786 36.108 1.32049 36.2821 1.79688 36.2826H38.2031C38.6795 36.2821 39.1363 36.1081 39.4732 35.7988C39.81 35.4894 39.9995 35.0699 40 34.6324V16.3702C39.9995 15.9326 39.81 15.5132 39.4732 15.2038C39.1363 14.8944 38.6795 14.7204 38.2031 14.72ZM27.7431 2.79569C29.2561 2.7954 30.741 3.17026 32.0412 3.88071C33.3415 4.59116 34.4087 5.61083 35.1302 6.83208C35.8518 8.05333 36.2009 9.43084 36.1408 10.8192C36.0806 12.2075 35.6134 13.5552 34.7884 14.72H33.0219C34.1332 13.5569 34.7444 12.0615 34.7406 10.5141C34.7409 9.0379 34.1877 7.60665 33.1741 6.46098C32.1605 5.3153 30.7483 4.52506 29.1749 4.22312C27.6015 3.92118 25.9629 4.12596 24.5346 4.80302C23.1062 5.48008 21.9753 6.58815 21.3319 7.9409C21.1531 7.411 20.9193 6.89809 20.6337 6.40922C21.3921 5.30627 22.4412 4.39688 23.6839 3.76523C24.9266 3.13359 26.3228 2.80012 27.7431 2.79569ZM21.3319 13.0887C21.6168 13.6822 21.9987 14.2323 22.4644 14.72H20.5703C20.8844 14.2016 21.1396 13.655 21.3319 13.0887ZM21.8391 10.5132C21.8368 9.59668 22.0876 8.69457 22.5679 7.89118C23.0483 7.08778 23.7425 6.40931 24.5858 5.91916C25.4291 5.429 26.394 5.14315 27.3902 5.08832C28.3864 5.03348 29.3815 5.21145 30.2825 5.60559C31.1835 5.99973 31.961 6.59718 32.5424 7.34213C33.1238 8.08709 33.4901 8.95522 33.6071 9.86545C33.7241 10.7757 33.5879 11.6983 33.2114 12.5471C32.8348 13.3959 32.2301 14.1431 31.4538 14.7191H24.0313C23.3457 14.214 22.7927 13.5736 22.4132 12.8456C22.0338 12.1175 21.8375 11.3204 21.8391 10.5132ZM3.85281 10.5132C3.85265 9.31204 4.15776 8.12741 4.74387 7.0536C5.32999 5.97978 6.18092 5.04642 7.22896 4.32779C8.27699 3.60916 9.4932 3.1251 10.7808 2.91413C12.0684 2.70315 13.3918 2.7711 14.6458 3.11254C15.8998 3.45399 17.0497 4.05952 18.004 4.88094C18.9583 5.70236 19.6906 6.717 20.1428 7.84412C20.5949 8.97124 20.7544 10.1797 20.6085 11.3734C20.4625 12.5671 20.0152 13.713 19.3022 14.72H17.5356C18.6469 13.5569 19.2581 12.0614 19.2544 10.5141C19.2605 9.66649 19.0841 8.82615 18.7352 8.04145C18.3863 7.25674 17.8718 6.54317 17.2213 5.94182C16.5709 5.34048 15.7974 4.86323 14.9453 4.53755C14.0932 4.21188 13.1793 4.04421 12.2564 4.04421C11.3335 4.04421 10.4196 4.21188 9.56754 4.53755C8.71545 4.86323 7.94191 5.34048 7.29148 5.94182C6.64104 6.54317 6.12656 7.25674 5.77764 8.04145C5.42872 8.82615 5.25227 9.66649 5.25844 10.5141C5.25471 12.0615 5.86584 13.5569 6.97719 14.72H5.21156C4.32208 13.4692 3.84982 12.0071 3.85281 10.5132ZM6.35281 10.5132C6.3509 9.59682 6.60192 8.69492 7.08241 7.89175C7.56291 7.08859 8.25721 6.41037 9.10048 5.92042C9.94374 5.43048 10.9085 5.1448 11.9045 5.09007C12.9006 5.03534 13.8955 5.21333 14.7964 5.60744C15.6973 6.00154 16.4747 6.5989 17.056 7.34372C17.6374 8.08853 18.0037 8.95651 18.1208 9.86658C18.2378 10.7767 18.1019 11.6991 17.7255 12.5479C17.3492 13.3966 16.7448 14.1439 15.9687 14.72H8.54625C7.8603 14.2149 7.30695 13.5745 6.92724 12.8463C6.54752 12.118 6.3512 11.3206 6.35281 10.5132ZM38.9062 34.6324C38.906 34.8036 38.8318 34.9677 38.7 35.0887C38.5682 35.2098 38.3895 35.2779 38.2031 35.2781H1.79688C1.61047 35.2779 1.43177 35.2098 1.29996 35.0887C1.16816 34.9677 1.094 34.8036 1.09375 34.6324V16.3702C1.094 16.199 1.16816 16.0349 1.29996 15.9138C1.43177 15.7928 1.61047 15.7247 1.79688 15.7244H38.2031C38.3895 15.7247 38.5682 15.7928 38.7 15.9138C38.8318 16.0349 38.906 16.199 38.9062 16.3702V34.6324Z" fill="#264065"/>
<path d="M36.9531 19.6211C36.3471 19.6205 35.766 19.3991 35.3375 19.0056C34.9089 18.612 34.6678 18.0784 34.6672 17.5218C34.6672 17.3886 34.6096 17.2608 34.507 17.1666C34.4045 17.0724 34.2654 17.0195 34.1203 17.0195H5.87969C5.73465 17.0195 5.59555 17.0724 5.49299 17.1666C5.39043 17.2608 5.33281 17.3886 5.33281 17.5218C5.33215 18.0784 5.0911 18.612 4.66255 19.0056C4.23399 19.3991 3.65294 19.6205 3.04688 19.6211C2.90186 19.6212 2.76281 19.6741 2.66027 19.7683C2.55773 19.8625 2.50008 19.9902 2.5 20.1234V30.8856C2.5 31.0188 2.55762 31.1465 2.66018 31.2407C2.76273 31.3349 2.90183 31.3878 3.04688 31.3878C3.65297 31.3885 4.23402 31.6099 4.66256 32.0036C5.09111 32.3972 5.33215 32.9308 5.33281 33.4875C5.33281 33.6207 5.39043 33.7484 5.49299 33.8426C5.59555 33.9368 5.73465 33.9897 5.87969 33.9897H34.1203C34.2654 33.9897 34.4045 33.9368 34.507 33.8426C34.6096 33.7484 34.6672 33.6207 34.6672 33.4875C34.6678 32.9308 34.9089 32.3972 35.3374 32.0036C35.766 31.6099 36.347 31.3885 36.9531 31.3878C37.025 31.3879 37.0961 31.3749 37.1625 31.3497C37.2288 31.3244 37.2891 31.2875 37.3399 31.2408C37.3907 31.1942 37.431 31.1388 37.4585 31.0778C37.4859 31.0169 37.5 30.9516 37.5 30.8856V20.1234C37.5 19.9902 37.4424 19.8624 37.3398 19.7682C37.2373 19.674 37.0982 19.6211 36.9531 19.6211ZM6.38219 32.9858C6.2666 32.345 5.93558 31.7536 5.43552 31.2943C4.93547 30.835 4.29145 30.5309 3.59375 30.4247V20.5851C4.29143 20.4789 4.93542 20.1748 5.43547 19.7155C5.93552 19.2562 6.26656 18.6648 6.38219 18.024H15.6444C14.169 18.7479 12.9353 19.8262 12.0752 21.1437C11.2151 22.4613 10.7608 23.9687 10.7608 25.5049C10.7608 27.0411 11.2151 28.5485 12.0752 29.8661C12.9353 31.1836 14.169 32.2619 15.6444 32.9858H6.38219ZM20 18.024C21.6111 18.0239 23.1861 18.4627 24.5258 19.2847C25.8654 20.1067 26.9095 21.275 27.5261 22.642C28.1427 24.009 28.304 25.5132 27.9897 26.9645C27.6754 28.4157 26.8996 29.7487 25.7604 30.7949C24.6211 31.8412 23.1696 32.5537 21.5894 32.8424C20.0092 33.131 18.3713 32.9828 16.8829 32.4166C15.3944 31.8503 14.1221 30.8914 13.2271 29.6611C12.332 28.4308 11.8543 26.9844 11.8544 25.5048C11.8572 23.5215 12.7163 21.6203 14.2433 20.2179C15.7703 18.8156 17.8405 18.0266 20 18.024ZM36.4062 30.4247C35.7084 30.5307 35.0643 30.8347 34.5641 31.294C34.064 31.7534 33.733 32.3449 33.6175 32.9858H24.3556C25.831 32.2619 27.0647 31.1836 27.9248 29.8661C28.7849 28.5485 29.2392 27.0411 29.2392 25.5049C29.2392 23.9687 28.7849 22.4613 27.9248 21.1437C27.0647 19.8262 25.831 18.7479 24.3556 18.024H33.6175C33.7331 18.6648 34.0641 19.2564 34.5642 19.7157C35.0644 20.175 35.7085 20.479 36.4062 20.5851V30.4247Z" fill="#264065"/>
<path d="M21.8065 27.6903H16.9434C16.7983 27.6903 16.6592 27.7432 16.5567 27.8374C16.4541 27.9315 16.3965 28.0593 16.3965 28.1925C16.3965 28.3257 16.4541 28.4534 16.5567 28.5476C16.6592 28.6418 16.7983 28.6947 16.9434 28.6947H18.3155V29.9394C18.3155 30.0726 18.3732 30.2004 18.4757 30.2946C18.5783 30.3887 18.7174 30.4417 18.8624 30.4417C19.0075 30.4417 19.1466 30.3887 19.2491 30.2946C19.3517 30.2004 19.4093 30.0726 19.4093 29.9394V28.6947H20.5905V29.9394C20.5905 30.0726 20.6482 30.2004 20.7507 30.2946C20.8533 30.3887 20.9924 30.4417 21.1374 30.4417C21.2825 30.4417 21.4216 30.3887 21.5241 30.2946C21.6267 30.2004 21.6843 30.0726 21.6843 29.9394V28.6947H21.8065C22.2829 28.6943 22.7396 28.5203 23.0765 28.2109C23.4134 27.9015 23.6029 27.482 23.6034 27.0445V25.5019C23.6034 25.3687 23.5457 25.241 23.4432 25.1468C23.3406 25.0526 23.2015 24.9997 23.0565 24.9997H17.4902V23.9593C17.4905 23.7882 17.5646 23.624 17.6964 23.503C17.8283 23.3819 18.007 23.3138 18.1934 23.3136H23.0565C23.2015 23.3136 23.3406 23.2607 23.4432 23.1665C23.5457 23.0723 23.6034 22.9446 23.6034 22.8114C23.6034 22.6782 23.5457 22.5504 23.4432 22.4562C23.3406 22.3621 23.2015 22.3091 23.0565 22.3091H21.6843V21.0647C21.6843 20.9315 21.6267 20.8038 21.5241 20.7096C21.4216 20.6154 21.2825 20.5625 21.1374 20.5625C20.9924 20.5625 20.8533 20.6154 20.7507 20.7096C20.6482 20.8038 20.5905 20.9315 20.5905 21.0647V22.3094H19.4093V21.0647C19.4093 20.9315 19.3517 20.8038 19.2491 20.7096C19.1466 20.6154 19.0075 20.5625 18.8624 20.5625C18.7174 20.5625 18.5783 20.6154 18.4757 20.7096C18.3732 20.8038 18.3155 20.9315 18.3155 21.0647V22.3094H18.1934C17.717 22.3099 17.2602 22.4839 16.9233 22.7933C16.5865 23.1026 16.397 23.5221 16.3965 23.9596V25.5022C16.3964 25.5682 16.4106 25.6335 16.438 25.6945C16.4655 25.7554 16.5058 25.8108 16.5566 25.8574C16.6074 25.9041 16.6677 25.9411 16.734 25.9663C16.8004 25.9915 16.8715 26.0045 16.9434 26.0045H22.5096V27.0448C22.5093 27.2159 22.4351 27.38 22.3033 27.501C22.1715 27.622 21.9928 27.69 21.8065 27.6903Z" fill="#264065"/>
<path d="M14.0141 7.4438L12.2572 9.12816L10.5004 7.4438C10.4507 7.39619 10.3912 7.35802 10.3255 7.33149C10.2597 7.30496 10.1889 7.29059 10.1171 7.28919C10.0453 7.28779 9.9739 7.2994 9.90698 7.32334C9.84006 7.34728 9.77892 7.3831 9.72707 7.42874C9.67522 7.47438 9.63367 7.52895 9.60478 7.58934C9.57589 7.64973 9.56024 7.71475 9.55872 7.7807C9.55719 7.84664 9.56983 7.91222 9.5959 7.97368C9.62197 8.03514 9.66097 8.09128 9.71067 8.1389L10.976 9.35173H10.265C10.12 9.35173 9.9809 9.40465 9.87834 9.49883C9.77578 9.59302 9.71817 9.72077 9.71817 9.85397C9.71817 9.98717 9.77578 10.1149 9.87834 10.2091C9.9809 10.3033 10.12 10.3562 10.265 10.3562H11.7104V11.0025H10.265C10.12 11.0025 9.9809 11.0554 9.87834 11.1496C9.77578 11.2438 9.71817 11.3716 9.71817 11.5048C9.71817 11.638 9.77578 11.7657 9.87834 11.8599C9.9809 11.9541 10.12 12.007 10.265 12.007H11.7104V12.9038C11.7104 13.037 11.768 13.1648 11.8705 13.259C11.9731 13.3532 12.1122 13.4061 12.2572 13.4061C12.4023 13.4061 12.5414 13.3532 12.6439 13.259C12.7465 13.1648 12.8041 13.037 12.8041 12.9038V12.007H14.2504C14.3954 12.007 14.5345 11.9541 14.6371 11.8599C14.7396 11.7657 14.7972 11.638 14.7972 11.5048C14.7972 11.3716 14.7396 11.2438 14.6371 11.1496C14.5345 11.0554 14.3954 11.0025 14.2504 11.0025H12.8041V10.3568H14.2504C14.3954 10.3568 14.5345 10.3039 14.6371 10.2097C14.7396 10.1155 14.7972 9.98775 14.7972 9.85454C14.7972 9.72134 14.7396 9.5936 14.6371 9.49941C14.5345 9.40522 14.3954 9.35231 14.2504 9.35231H13.5385L14.8041 8.13947C14.9046 8.04327 14.9593 7.91435 14.9562 7.78109C14.9532 7.64782 14.8926 7.52113 14.7879 7.42888C14.6831 7.33663 14.5427 7.28637 14.3976 7.28917C14.2525 7.29197 14.1146 7.34759 14.0141 7.4438Z" fill="#264065"/>
<path d="M29.5004 7.44379L27.7439 9.12815L25.9867 7.44379C25.937 7.39617 25.8776 7.35801 25.8118 7.33148C25.746 7.30495 25.6752 7.29057 25.6034 7.28918C25.5316 7.28778 25.4602 7.29938 25.3933 7.32332C25.3264 7.34727 25.2653 7.38308 25.2134 7.42872C25.1616 7.47436 25.12 7.52894 25.0911 7.58932C25.0622 7.64971 25.0466 7.71474 25.045 7.78068C25.0435 7.84663 25.0562 7.9122 25.0822 7.97366C25.1083 8.03512 25.1473 8.09127 25.197 8.13889L26.4623 9.35172H25.7504C25.6054 9.35172 25.4663 9.40463 25.3637 9.49882C25.2612 9.59301 25.2036 9.72075 25.2036 9.85395C25.2036 9.98716 25.2612 10.1149 25.3637 10.2091C25.4663 10.3033 25.6054 10.3562 25.7504 10.3562H27.1957V11.0025H25.7504C25.6054 11.0025 25.4663 11.0554 25.3637 11.1496C25.2612 11.2438 25.2036 11.3715 25.2036 11.5047C25.2036 11.6379 25.2612 11.7657 25.3637 11.8599C25.4663 11.9541 25.6054 12.007 25.7504 12.007H27.1957V12.9038C27.1957 13.037 27.2534 13.1648 27.3559 13.259C27.4585 13.3532 27.5976 13.4061 27.7426 13.4061C27.8877 13.4061 28.0268 13.3532 28.1293 13.259C28.2319 13.1648 28.2895 13.037 28.2895 12.9038V12.007H29.7348C29.8798 12.007 30.0189 11.9541 30.1215 11.8599C30.2241 11.7657 30.2817 11.6379 30.2817 11.5047C30.2817 11.3715 30.2241 11.2438 30.1215 11.1496C30.0189 11.0554 29.8798 11.0025 29.7348 11.0025H28.2904V10.3568H29.7357C29.8808 10.3568 30.0199 10.3039 30.1224 10.2097C30.225 10.1155 30.2826 9.98773 30.2826 9.85453C30.2826 9.72133 30.225 9.59358 30.1224 9.49939C30.0199 9.40521 29.8808 9.35229 29.7357 9.35229H29.0248L30.2901 8.13946C30.3399 8.09184 30.3789 8.03569 30.405 7.97422C30.4311 7.91274 30.4438 7.84714 30.4423 7.78117C30.4408 7.7152 30.4252 7.65015 30.3963 7.58972C30.3674 7.5293 30.3259 7.47469 30.274 7.42901C30.2222 7.38333 30.161 7.34748 30.0941 7.3235C30.0272 7.29952 29.9557 7.28789 29.8839 7.28926C29.8121 7.29063 29.7412 7.30499 29.6754 7.3315C29.6096 7.35801 29.5502 7.39617 29.5004 7.44379Z" fill="#264065"/>
</svg>
