<svg width="202" height="202" viewBox="0 0 202 202" fill="none" xmlns="http://www.w3.org/2000/svg">
<path d="M103.061 0H98.4551V11.5142H103.061V0Z" fill="#264065" fill-opacity="0.43"/>
<path d="M103.061 0H98.4551V11.5142H103.061V0Z" fill="#264065" fill-opacity="0.43"/>
<path d="M103.061 190H98.4551V201.514H103.061V190Z" fill="#264065" fill-opacity="0.43"/>
<path d="M11.5142 98.457H0V103.063H11.5142V98.457Z" fill="#264065" fill-opacity="0.43"/>
<path d="M11.5142 98.457H0V103.063H11.5142V98.457Z" fill="#264065" fill-opacity="0.43"/>
<path d="M201.515 98.457H190.001V103.063H201.515V98.457Z" fill="#264065" fill-opacity="0.43"/>
<path d="M31.1542 27.8839L27.8975 31.1406L36.0392 39.2824L39.2959 36.0257L31.1542 27.8839Z" fill="#264065" fill-opacity="0.43"/>
<path d="M31.1542 27.8839L27.8975 31.1406L36.0392 39.2824L39.2959 36.0257L31.1542 27.8839Z" fill="#264065" fill-opacity="0.43"/>
<path d="M165.487 162.243L162.23 165.5L170.372 173.642L173.629 170.385L165.487 162.243Z" fill="#264065" fill-opacity="0.43"/>
<path d="M36.029 162.228L27.8887 170.371L31.1459 173.627L39.2863 165.484L36.029 162.228Z" fill="#264065" fill-opacity="0.43"/>
<path d="M36.029 162.228L27.8887 170.371L31.1459 173.627L39.2863 165.484L36.029 162.228Z" fill="#264065" fill-opacity="0.43"/>
<path d="M170.375 27.8764L162.234 36.0195L165.492 39.2757L173.632 31.1325L170.375 27.8764Z" fill="#264065" fill-opacity="0.43"/>
<path d="M80.0431 2.13033L75.5586 3.17969L78.182 14.391L82.6665 13.3416L80.0431 2.13033Z" fill="#264065" fill-opacity="0.43"/>
<path d="M80.0431 2.13033L75.5586 3.17969L78.182 14.391L82.6665 13.3416L80.0431 2.13033Z" fill="#264065" fill-opacity="0.43"/>
<path d="M123.34 187.138L118.855 188.188L121.479 199.399L125.963 198.349L123.34 187.138Z" fill="#264065" fill-opacity="0.43"/>
<path d="M13.3471 118.849L2.13672 121.477L3.18764 125.961L14.3981 123.333L13.3471 118.849Z" fill="#264065" fill-opacity="0.43"/>
<path d="M13.3471 118.849L2.13672 121.477L3.18764 125.961L14.3981 123.333L13.3471 118.849Z" fill="#264065" fill-opacity="0.43"/>
<path d="M198.345 75.566L187.134 78.1914L188.184 82.6757L199.395 80.0504L198.345 75.566Z" fill="#264065" fill-opacity="0.43"/>
<path d="M16.3727 45.6647L13.9443 49.5781L23.728 55.649L26.1564 51.7355L16.3727 45.6647Z" fill="#264065" fill-opacity="0.43"/>
<path d="M16.3727 45.6647L13.9443 49.5781L23.728 55.649L26.1564 51.7355L16.3727 45.6647Z" fill="#264065" fill-opacity="0.43"/>
<path d="M177.797 145.852L175.369 149.766L185.153 155.836L187.581 151.923L177.797 145.852Z" fill="#264065" fill-opacity="0.43"/>
<path d="M51.7552 175.358L45.6826 185.141L49.5957 187.57L55.6682 177.787L51.7552 175.358Z" fill="#264065" fill-opacity="0.43"/>
<path d="M51.7552 175.358L45.6826 185.141L49.5957 187.57L55.6682 177.787L51.7552 175.358Z" fill="#264065" fill-opacity="0.43"/>
<path d="M151.921 13.9283L145.849 23.7109L149.762 26.14L155.834 16.3573L151.921 13.9283Z" fill="#264065" fill-opacity="0.43"/>
<path d="M65.7358 6.24221L61.4551 7.94141L65.7031 18.6433L69.9838 16.9441L65.7358 6.24221Z" fill="#264065" fill-opacity="0.43"/>
<path d="M65.7358 6.24221L61.4551 7.94141L65.7031 18.6433L69.9838 16.9441L65.7358 6.24221Z" fill="#264065" fill-opacity="0.43"/>
<path d="M135.817 182.855L131.536 184.555L135.784 195.257L140.065 193.557L135.817 182.855Z" fill="#264065" fill-opacity="0.43"/>
<path d="M16.9558 131.525L6.25391 135.773L7.9531 140.054L18.655 135.806L16.9558 131.525Z" fill="#264065" fill-opacity="0.43"/>
<path d="M16.9558 131.525L6.25391 135.773L7.9531 140.054L18.655 135.806L16.9558 131.525Z" fill="#264065" fill-opacity="0.43"/>
<path d="M193.568 61.4434L182.866 65.6914L184.565 69.9722L195.267 65.7242L193.568 61.4434Z" fill="#264065" fill-opacity="0.43"/>
<path d="M9.17579 58.6976L7.34961 62.9258L17.92 67.4912L19.7462 63.2631L9.17579 58.6976Z" fill="#264065" fill-opacity="0.43"/>
<path d="M9.17579 58.6976L7.34961 62.9258L17.92 67.4912L19.7462 63.2631L9.17579 58.6976Z" fill="#264065" fill-opacity="0.43"/>
<path d="M183.622 134.037L181.796 138.266L192.366 142.831L194.192 138.603L183.622 134.037Z" fill="#264065" fill-opacity="0.43"/>
<path d="M63.2814 181.792L58.7178 192.363L62.9462 194.189L67.5098 183.618L63.2814 181.792Z" fill="#264065" fill-opacity="0.43"/>
<path d="M63.2814 181.792L58.7178 192.363L62.9462 194.189L67.5098 183.618L63.2814 181.792Z" fill="#264065" fill-opacity="0.43"/>
<path d="M138.581 7.3429L134.018 17.9141L138.246 19.7395L142.81 9.16834L138.581 7.3429Z" fill="#264065" fill-opacity="0.43"/>
<path d="M45.1238 16.7256L41.3428 19.3555L47.9174 28.808L51.6984 26.1782L45.1238 16.7256Z" fill="#264065" fill-opacity="0.43"/>
<path d="M45.1238 16.7256L41.3428 19.3555L47.9174 28.808L51.6984 26.1782L45.1238 16.7256Z" fill="#264065" fill-opacity="0.43"/>
<path d="M153.614 172.698L149.833 175.328L156.408 184.781L160.189 182.151L153.614 172.698Z" fill="#264065" fill-opacity="0.43"/>
<path d="M26.185 149.816L16.7324 156.391L19.3623 160.172L28.8148 153.597L26.185 149.816Z" fill="#264065" fill-opacity="0.43"/>
<path d="M26.185 149.816L16.7324 156.391L19.3623 160.172L28.8148 153.597L26.185 149.816Z" fill="#264065" fill-opacity="0.43"/>
<path d="M182.169 41.3512L172.717 47.9258L175.347 51.7068L184.799 45.1322L182.169 41.3512Z" fill="#264065" fill-opacity="0.43"/>
<path d="M1.99175 80.6778L1.17773 85.2109L12.5106 87.246L13.3246 82.7128L1.99175 80.6778Z" fill="#264065" fill-opacity="0.43"/>
<path d="M1.99175 80.6778L1.17773 85.2109L12.5106 87.246L13.3246 82.7128L1.99175 80.6778Z" fill="#264065" fill-opacity="0.43"/>
<path d="M189.018 114.268L188.204 118.801L199.537 120.836L200.351 116.303L189.018 114.268Z" fill="#264065" fill-opacity="0.43"/>
<path d="M82.7313 188.186L80.6982 199.52L85.2315 200.333L87.2646 188.999L82.7313 188.186Z" fill="#264065" fill-opacity="0.43"/>
<path d="M82.7313 188.186L80.6982 199.52L85.2315 200.333L87.2646 188.999L82.7313 188.186Z" fill="#264065" fill-opacity="0.43"/>
<path d="M116.294 1.17065L114.261 12.5039L118.794 13.3171L120.827 1.98387L116.294 1.17065Z" fill="#264065" fill-opacity="0.43"/>
</svg>
