<svg width="40" height="38" viewBox="0 0 40 38" fill="none" xmlns="http://www.w3.org/2000/svg">
<g clip-path="url(#clip0_400_3912)">
<path d="M35.3072 22.6689C36.623 19.1078 36.5882 15.2426 35.2084 11.702C33.8286 8.16144 31.1851 5.15371 27.7077 3.16805C24.2303 1.18239 20.1237 0.335622 16.0558 0.765464C11.9879 1.19531 8.19801 2.87647 5.30255 5.53553C2.40708 8.19458 0.576392 11.6751 0.108235 15.411C-0.359922 19.1468 0.561996 22.9183 2.72404 26.1118C4.88608 29.3054 8.16106 31.7333 12.0163 33.0006C15.8715 34.2678 20.0802 34.2999 23.9579 33.0916C24.556 34.1954 25.4315 35.1527 26.512 35.8844C27.5925 36.6161 28.847 37.1013 30.172 37.3C31.497 37.4986 32.8544 37.4049 34.1321 37.0267C35.4099 36.6485 36.5714 35.9966 37.5207 35.1248C38.47 34.253 39.1799 33.1863 39.5918 32.0128C40.0036 30.8394 40.1057 29.5928 39.8894 28.3759C39.6732 27.1591 39.1449 26.007 38.3482 25.0146C37.5514 24.0223 36.5091 23.2183 35.3072 22.6689ZM34.2969 22.2786C32.2171 21.6163 29.9378 21.7267 27.9454 22.5862L28.7469 21.3014C28.7943 21.2254 28.8192 21.1393 28.8191 21.0517V18.6768L30.5185 17.0714C30.6178 16.9777 30.6733 16.852 30.6732 16.7213V14.6782C30.6732 14.5685 30.6341 14.4618 30.5618 14.3745C30.4896 14.2872 30.3882 14.224 30.2732 14.1946L27.2732 13.4266L26.1638 11.4331C26.1245 11.3626 26.0676 11.3016 25.9978 11.2551C25.9279 11.2087 25.8471 11.178 25.7619 11.1656L21.5088 10.5512V10.1678L27.25 9.00086L29.3954 10.9696C29.498 11.0638 29.6371 11.1167 29.7822 11.1169H33.776C35.441 14.651 35.6265 18.6254 34.2969 22.2774V22.2786ZM33.2529 10.1135H30.0085L27.8125 8.09597C27.7475 8.03634 27.6672 7.99267 27.5791 7.969C27.4909 7.94533 27.3976 7.94241 27.3079 7.96051L20.8438 9.27408C20.7223 9.29882 20.6136 9.36087 20.5356 9.44998C20.4577 9.5391 20.4152 9.64996 20.415 9.76426V10.9805C20.4151 11.1002 20.4617 11.2159 20.5463 11.3068C20.631 11.3977 20.7482 11.4579 20.8769 11.4765L25.3166 12.1176L26.4082 14.0795C26.4425 14.1413 26.4905 14.1959 26.549 14.2398C26.6076 14.2837 26.6754 14.316 26.7482 14.3346L29.5794 15.0593V16.5172L27.88 18.1226C27.7808 18.2164 27.7254 18.342 27.7254 18.4728V20.9177L25.9197 23.8131C25.189 24.4084 24.5751 25.1145 24.1047 25.9007H22.886V24.3111C22.886 24.2415 22.8702 24.1726 22.8397 24.1089C22.8092 24.0451 22.7646 23.9879 22.7088 23.9408L20.3438 21.9494V19.6403C20.3438 19.5372 20.3092 19.4366 20.2448 19.3522C20.1804 19.2678 20.0893 19.2036 19.9838 19.1684L15.0988 17.5372V13.8063L18.2907 10.641C18.3424 10.5898 18.3819 10.5291 18.4066 10.463C18.4314 10.397 18.4408 10.3268 18.4344 10.2572C18.4279 10.1876 18.4057 10.1199 18.3692 10.0586C18.3327 9.99732 18.2826 9.94368 18.2222 9.90116L15.3029 7.84457L17.6954 4.74505H22.5775C22.7226 4.74498 22.8616 4.69202 22.9641 4.59782L24.7947 2.9169C28.4343 4.34702 31.4228 6.88979 33.2529 10.1135ZM7.13348 5.38274L8.50661 7.98031L7.40098 8.48829C7.34664 8.51322 7.29721 8.54629 7.25473 8.58616L4.65911 11.0184C4.58737 11.0856 4.53762 11.17 4.51553 11.2618C4.49343 11.3537 4.49986 11.4495 4.53411 11.5382L4.90629 12.499C4.47964 12.7405 4.09324 13.0373 3.75911 13.3804L1.55379 13.7213C2.39627 10.4659 4.35163 7.54368 7.13348 5.38274ZM1.09786 17.4669H2.88942L7.40973 19.0284L9.72223 22.6238V24.0628L9.04473 25.0076C8.9705 25.1109 8.94045 25.2358 8.96035 25.3582C8.98025 25.4806 9.04869 25.5919 9.15254 25.6708L9.32442 25.8011L7.68411 26.7017C7.603 26.7462 7.53583 26.8093 7.48917 26.8847C7.44251 26.9602 7.41794 27.0454 7.41786 27.1322V29.4749C5.46482 28.0257 3.88528 26.1975 2.79259 24.1213C1.6999 22.0452 1.12115 19.7727 1.09786 17.4669ZM18.1344 32.9705C14.6971 32.9733 11.3402 32.0158 8.50942 30.2251C8.50942 30.2188 8.51129 30.2128 8.51129 30.2065V27.4178L10.5494 26.2985C10.6247 26.2573 10.688 26.2001 10.7341 26.1317C10.7803 26.0634 10.8078 25.9858 10.8145 25.9056C10.8212 25.8254 10.8068 25.7449 10.7725 25.6709C10.7382 25.5969 10.6851 25.5315 10.6175 25.4803L10.2275 25.1838L10.7254 24.4899C10.7844 24.4079 10.8158 24.3118 10.8157 24.2135V22.4864C10.8158 22.3966 10.7896 22.3085 10.7397 22.2312L8.25348 18.3654C8.19006 18.2668 8.09181 18.191 7.97504 18.1508L3.18129 16.4945C3.11975 16.4733 3.05454 16.4624 2.98879 16.4624H1.12036C1.15471 15.8971 1.2222 15.334 1.32254 14.7754L4.13504 14.3409C4.26493 14.3208 4.38255 14.2584 4.46629 14.165C4.83727 13.7526 5.2989 13.4167 5.82098 13.1795C5.94048 13.1247 6.034 13.0316 6.08391 12.9178C6.13382 12.8041 6.13667 12.6774 6.09192 12.5619L5.67942 11.4966L7.97192 9.34841L9.47911 8.65618C9.60784 8.59703 9.70601 8.49367 9.75234 8.3685C9.79867 8.24333 9.78942 8.10644 9.72661 7.98749L8.01036 4.74189C10.2286 3.23103 12.8143 2.23951 15.5438 1.8532C18.2733 1.46689 21.0641 1.69744 23.6747 2.52487L22.351 3.74057H17.4125C17.3252 3.7406 17.239 3.75985 17.1614 3.7967C17.0838 3.83354 17.0169 3.88692 16.9663 3.95237L14.106 7.65831C14.0242 7.76431 13.9904 7.89527 14.0115 8.0237C14.0327 8.15213 14.1072 8.26804 14.2194 8.34709L17.0804 10.3624L14.151 13.2656C14.0572 13.3584 14.0051 13.4804 14.005 13.6071V17.889C14.005 17.9921 14.0396 18.0927 14.104 18.1771C14.1684 18.2615 14.2595 18.3257 14.365 18.3608L19.25 19.9921V22.1704C19.2501 22.24 19.2658 22.3088 19.2963 22.3726C19.3268 22.4363 19.3714 22.4935 19.4272 22.5406L21.7925 24.5318V26.403C21.7925 26.5362 21.8502 26.6639 21.9527 26.7581C22.0553 26.8523 22.1944 26.9052 22.3394 26.9052H23.6041C22.9139 28.5971 22.8888 30.4573 23.5332 32.1643C21.7928 32.6989 19.9696 32.9712 18.1344 32.9705ZM31.5338 36.3972C30.0756 36.3973 28.6501 36.0002 27.4376 35.2562C26.2251 34.5122 25.28 33.4547 24.722 32.2175C24.1639 30.9802 24.0178 29.6188 24.3023 28.3053C24.5868 26.9918 25.289 25.7853 26.3201 24.8383C27.3512 23.8914 28.665 23.2465 30.0952 22.9852C31.5254 22.724 33.0079 22.8581 34.3551 23.3706C35.7023 23.8831 36.8538 24.751 37.6639 25.8646C38.474 26.9781 38.9064 28.2873 38.9063 29.6265C38.9041 31.4215 38.1266 33.1425 36.7445 34.4118C35.3623 35.6811 33.4884 36.3951 31.5338 36.3972Z" fill="#264065"/>
<path d="M37.3885 26.7893L36.6932 26.1505C36.354 25.839 35.894 25.6641 35.4144 25.6641C34.9348 25.6641 34.4748 25.839 34.1357 26.1505L32.6769 27.4899L30.1894 26.961C29.8556 26.889 29.5073 26.8968 29.1778 26.9835C28.8482 27.0702 28.5482 27.233 28.3066 27.4563L27.7319 27.9844C27.6689 28.0422 27.6222 28.1132 27.5958 28.1914C27.5695 28.2695 27.5644 28.3524 27.5809 28.4327C27.5974 28.5131 27.6351 28.5886 27.6906 28.6525C27.7461 28.7165 27.8178 28.767 27.8994 28.7997L30.2322 29.7353L29.3135 30.5788L27.1288 30.7648C27.0019 30.7751 26.883 30.8259 26.7925 30.9083L25.6775 31.932C25.6102 31.9939 25.5617 32.0709 25.5367 32.1553C25.5117 32.2397 25.5112 32.3287 25.5352 32.4134C25.5591 32.4981 25.6067 32.5755 25.6733 32.6381C25.7399 32.7007 25.8231 32.7463 25.9147 32.7703L28.6435 33.4832C29.1694 33.6205 29.7256 33.6265 30.2548 33.5003C30.7841 33.3742 31.267 33.1206 31.6538 32.7657L37.3885 27.4991C37.4393 27.4525 37.4796 27.3971 37.5071 27.3362C37.5346 27.2753 37.5488 27.21 37.5488 27.1441C37.5488 27.0781 37.5346 27.0128 37.5071 26.9519C37.4796 26.891 37.4393 26.8359 37.3885 26.7893ZM30.8803 32.0557C30.6315 32.2842 30.3207 32.4475 29.98 32.5288C29.6394 32.6101 29.2814 32.6064 28.9428 32.518L27.1097 32.0393L27.4266 31.7483L29.6113 31.562C29.7382 31.5518 29.8572 31.501 29.9475 31.4185L31.5725 29.9262C31.6355 29.8684 31.6821 29.7973 31.7084 29.7192C31.7346 29.6411 31.7397 29.5583 31.7232 29.4779C31.7066 29.3976 31.669 29.3222 31.6135 29.2582C31.558 29.1943 31.4863 29.1438 31.4047 29.1111L29.0722 28.1752L29.0803 28.1678C29.1909 28.0654 29.3283 27.9908 29.4792 27.9511C29.6302 27.9114 29.7897 27.9079 29.9425 27.941L32.726 28.5328C32.8163 28.5521 32.9106 28.5498 32.9998 28.5263C33.0889 28.5028 33.1701 28.4588 33.2357 28.3985L34.9091 26.8622C35.0451 26.7426 35.2261 26.6759 35.4144 26.6759C35.6027 26.6759 35.7837 26.7426 35.9197 26.8622L36.2285 27.1458L30.8803 32.0557Z" fill="#264065"/>
</g>
<defs>
<clipPath id="clip0_400_3912">
<rect width="40" height="36.7351" fill="white" transform="translate(0 0.667969)"/>
</clipPath>
</defs>
</svg>
