<svg width="73" height="72" viewBox="0 0 73 72" fill="none" xmlns="http://www.w3.org/2000/svg">
<circle cx="36.5" cy="36" r="36" fill="#A9D6CB"/>
<path d="M51.1914 22.9297C52.8789 22.9297 54.2852 21.5586 54.2852 19.8359C54.2852 18.1133 52.8789 16.7773 51.1914 16.7773C49.5039 16.7773 48.0977 18.1484 48.0977 19.8711C48.0977 21.5586 49.4687 22.9297 51.1914 22.9297ZM51.1914 18.0078C52.2109 18.0078 53.0547 18.8516 53.0547 19.8711C53.0547 20.8906 52.2109 21.7344 51.1914 21.7344C50.1719 21.7344 49.3281 20.8906 49.3281 19.8711C49.3281 18.8516 50.1367 18.0078 51.1914 18.0078Z" fill="#264065"/>
<path d="M54.8829 30.0664C54.3204 28.8711 53.6524 27.7109 52.879 26.6563C54.5665 25.5313 57.0626 23.3164 57.0626 19.8711C57.0626 16.6016 54.4259 14 51.1915 14C47.9571 14 45.2853 16.6016 45.2853 19.8711V20.2578C44.8282 20.0469 44.3712 19.8359 43.9142 19.625C30.6954 14.3164 16.0704 23.9141 16.0001 38.5039C15.9649 49.7539 25.0353 58.8945 36.2853 58.9297C47.5353 58.9648 56.6759 49.8945 56.711 38.6445C56.711 38.5742 56.711 38.5391 56.711 38.4688C56.711 35.5859 56.0782 32.7031 54.8829 30.0664ZM51.1915 15.1953C53.7579 15.1953 55.8321 17.2695 55.8673 19.8711C55.8673 23.5625 52.211 25.7422 51.1915 26.2344C50.2071 25.707 46.5157 23.5625 46.5157 19.8711C46.5157 17.2695 48.5899 15.1953 51.1915 15.1953ZM50.9103 27.5C51.086 27.5703 51.2618 27.5703 51.4024 27.5C51.4376 27.5 51.5782 27.4297 51.7892 27.2891C52.3517 28.0625 52.8439 28.8711 53.3009 29.7148H49.6446L47.1837 27.2539C47.0431 27.1133 46.8321 27.043 46.6212 27.0781L39.379 28.6953C39.0978 28.7656 38.8868 29.0117 38.8868 29.293V30.7695C38.8868 31.0859 39.0978 31.332 39.4142 31.3672L44.4064 32.1406L45.6368 34.5313C45.7071 34.6719 45.8478 34.8125 46.0235 34.8477L49.1876 35.7266V37.5195L47.2892 39.4883C47.1837 39.5938 47.1134 39.7695 47.1134 39.9102V42.8984L43.6329 48.9805H41.6993V47.0469C41.6993 46.8711 41.629 46.6953 41.4884 46.5898L38.8165 44.1641V41.3516C38.8165 41.1055 38.6407 40.8594 38.4298 40.7891L32.9454 38.7852V34.2148L36.5314 30.3477C36.7774 30.1016 36.7423 29.7148 36.4962 29.4688L36.461 29.4336L33.1915 26.9023L35.8634 23.1055H41.3478C41.5235 23.1055 41.6642 23.0352 41.7696 22.9297L43.8087 20.8906C44.3712 21.1367 44.9689 21.418 45.5314 21.7344C46.6564 25.5313 50.7345 27.3945 50.9103 27.5ZM24.0157 23.9141L25.5626 27.1133L24.3321 27.7461C24.2618 27.7813 24.2267 27.8164 24.1564 27.8516L21.2384 30.8398C21.0626 31.0156 21.0274 31.2617 21.0978 31.4727L21.5196 32.668C21.0626 32.9492 20.6056 33.3359 20.254 33.7227L17.7579 34.1445C18.672 30.1367 20.8868 26.5508 24.0157 23.9141ZM24.6134 43.9883C23.629 43.4609 19.9376 41.3164 19.9376 37.625C19.9728 35.0586 22.0821 32.9844 24.6485 33.0195C27.1798 33.0547 29.254 35.0938 29.254 37.625C29.254 41.3164 25.5978 43.4961 24.6134 43.9883ZM17.2657 37.4844C17.3009 36.7813 17.3712 36.1133 17.4767 35.4102L19.2696 35.0938C18.9181 35.832 18.7071 36.6406 18.7071 37.4492H17.2657V37.4844ZM24.3321 50.5273V53.4102C19.9024 49.8242 17.3009 44.4453 17.2306 38.7148H18.8126C19.4806 43.0391 24.1564 45.1484 24.3673 45.2539C24.5431 45.3242 24.7189 45.3242 24.8595 45.2539C25.3517 45.0078 25.8087 44.7617 26.2657 44.4453L26.8985 45.0781V46.7656L26.1251 47.9258C25.9493 48.1719 26.0196 48.5234 26.2306 48.7344L26.4064 48.9102L24.5782 50C24.4376 50.1055 24.3321 50.2813 24.3321 50.5273ZM36.3556 57.6641C32.4884 57.6641 28.7267 56.5039 25.5626 54.3242V50.8789L27.8478 49.5078C28.129 49.332 28.2345 48.9453 28.0587 48.6641C28.0235 48.5938 27.9884 48.5586 27.9181 48.5234L27.4962 48.1719L28.0587 47.3281C28.129 47.2227 28.1642 47.1172 28.1642 46.9766V44.8672C28.1642 44.6914 28.0939 44.5508 27.9884 44.4453L27.3204 43.7773C28.8673 42.5469 30.5548 40.5078 30.5548 37.6953C30.5548 34.4609 27.9532 31.8242 24.6837 31.8242C23.9806 31.8242 23.3126 31.9297 22.6446 32.1758L22.3985 31.4727L24.9649 28.8359L26.6524 27.9922C26.9689 27.8516 27.0743 27.4648 26.9337 27.1836L25.0001 23.2109C30.0626 19.4844 36.6368 18.4648 42.5782 20.5039L41.1017 21.9102H35.547C35.336 21.9102 35.1603 22.0156 35.0548 22.1563L31.8556 26.6914C31.6798 26.9727 31.7149 27.3242 31.9962 27.5352L35.1954 29.9961L31.8907 33.5469C31.7853 33.6523 31.7149 33.793 31.7149 33.9688V39.207C31.7149 39.4531 31.8907 39.6992 32.1017 39.7695L37.586 41.7734V44.4453C37.586 44.6211 37.6564 44.7969 37.797 44.9023L40.4689 47.3281V49.6133C40.4689 49.9648 40.7501 50.2109 41.0665 50.2109H43.9845C44.1954 50.2109 44.4064 50.1055 44.5118 49.8945L48.2735 43.3555C48.3439 43.25 48.3439 43.1445 48.3439 43.0391V40.1211L50.2423 38.2227C50.3478 38.1172 50.4181 37.9414 50.4181 37.8008V35.3047C50.4181 35.0234 50.2423 34.7773 49.961 34.707L46.586 33.7578L45.3556 31.332C45.2501 31.1563 45.1095 31.0508 44.8985 31.0156L40.1173 30.2773V29.7852L46.5509 28.3438L48.9767 30.7695C49.0821 30.875 49.2579 30.9453 49.3985 30.9453H53.8985C54.9532 33.3359 55.4806 35.9023 55.4806 38.5391C55.4806 49.0859 46.9024 57.6289 36.3556 57.6641Z" fill="#264065"/>
<path d="M24.6133 34.5312C22.9258 34.5312 21.5195 35.9023 21.5195 37.625C21.5195 39.3125 22.8906 40.7187 24.6133 40.7187C26.3359 40.7187 27.707 39.3477 27.707 37.625C27.6719 35.9375 26.3008 34.5312 24.6133 34.5312ZM24.6133 39.4883C23.5938 39.4883 22.75 38.6445 22.75 37.625C22.75 36.6055 23.5938 35.7617 24.6133 35.7617C25.6328 35.7617 26.4766 36.6055 26.4766 37.625C26.4766 38.6445 25.6328 39.4883 24.6133 39.4883Z" fill="#264065"/>
</svg>
