<svg width="73" height="72" viewBox="0 0 73 72" fill="none" xmlns="http://www.w3.org/2000/svg">
<circle cx="36.5" cy="36" r="36" fill="#A9D6CB"/>
<path fill-rule="evenodd" clip-rule="evenodd" d="M34.328 20.1247L35.2614 22.583C35.2894 22.6569 35.3548 22.7043 35.4337 22.7082L38.0601 22.8362C38.2388 22.8449 38.3119 23.0699 38.1725 23.182L36.123 24.8293C36.0614 24.8787 36.0364 24.9556 36.0571 25.0318L36.747 27.5692C36.7939 27.7417 36.6026 27.8808 36.4529 27.7829L34.2528 26.3427C34.1867 26.2994 34.106 26.2994 34.0398 26.3427L31.8398 27.7829C31.6901 27.8808 31.4988 27.7417 31.5457 27.5692L32.2355 25.0318C32.2562 24.9555 32.2313 24.8787 32.1697 24.8292L30.1202 23.1819C29.9808 23.0698 30.0539 22.8448 30.2326 22.8361L32.859 22.7081C32.9379 22.7043 33.0032 22.6568 33.0313 22.5829L33.9647 20.1246C34.0276 19.9584 34.265 19.9584 34.328 20.1247V20.1247ZM47.0266 40.9446C50.3256 40.9446 53 43.619 53 46.918C53 50.2171 50.3256 52.8915 47.0266 52.8915C43.7275 52.8915 41.0531 50.2171 41.0531 46.918C41.0531 43.619 43.7275 40.9446 47.0266 40.9446ZM46.242 47.4449L44.9073 46.1102C44.5613 45.7643 44.0002 45.7643 43.6542 46.1102C43.3083 46.4561 43.3083 47.0173 43.6542 47.3632L45.6174 49.3263C45.9633 49.6722 46.5244 49.6722 46.8703 49.3263C48.0536 48.143 49.2235 46.9464 50.4013 45.7577C50.7447 45.4111 50.7436 44.8517 50.3975 44.5074C50.0512 44.1631 49.4903 44.1641 49.1465 44.5113L46.242 47.4449ZM24.3156 49.6852L40.519 49.6852C40.1572 48.8353 39.9568 47.9001 39.9568 46.918C39.9568 45.4245 40.4204 44.0394 41.2109 42.898C39.3338 41.2245 36.8591 40.2071 34.1465 40.2071C28.9247 40.2071 24.5835 43.9756 23.6931 48.9411C23.6231 49.3312 23.9193 49.6852 24.3156 49.6852ZM34.1465 28.7819C37.1122 28.7819 39.5164 31.1862 39.5164 34.1519C39.5164 37.1176 37.1122 39.5218 34.1465 39.5218C31.1807 39.5218 28.7765 37.1176 28.7765 34.1519C28.7764 31.1862 31.1807 28.7819 34.1465 28.7819ZM43.3752 23.6043C43.3121 23.4381 43.0747 23.4381 43.0116 23.6043L42.0782 26.0626C42.0502 26.1366 41.9848 26.184 41.9059 26.1878L39.2795 26.3158C39.1009 26.3245 39.0278 26.5496 39.1671 26.6616L41.2167 28.3089C41.2783 28.3585 41.3032 28.4352 41.2825 28.5115L40.5926 31.0489C40.5457 31.2215 40.7371 31.3606 40.8867 31.2626L43.0868 29.8224C43.1529 29.7791 43.2336 29.7791 43.2997 29.8224L45.4998 31.2626C45.6495 31.3606 45.8409 31.2215 45.794 31.0489L45.1041 28.5115C45.0833 28.4353 45.1082 28.3585 45.1698 28.309L47.2194 26.6617C47.3588 26.5496 47.2857 26.3246 47.107 26.3159L44.4806 26.1879C44.4017 26.1841 44.3364 26.1366 44.3083 26.0627L43.3752 23.6043ZM25.2809 23.6043C25.2178 23.4381 24.9804 23.4381 24.9174 23.6043L23.984 26.0626C23.956 26.1366 23.8906 26.184 23.8117 26.1878L21.1853 26.3158C21.0066 26.3245 20.9335 26.5496 21.0729 26.6616L23.1225 28.3089C23.1841 28.3585 23.209 28.4352 23.1882 28.5115L22.4984 31.0489C22.4515 31.2215 22.6429 31.3606 22.7925 31.2626L24.9925 29.8224C25.0587 29.7791 25.1394 29.7791 25.2055 29.8224L27.4056 31.2626C27.5553 31.3606 27.7467 31.2215 27.6997 31.0489L27.0099 28.5115C26.9891 28.4353 27.0141 28.3585 27.0757 28.309L29.1252 26.6617C29.2646 26.5496 29.1915 26.3246 29.0128 26.3159L26.3865 26.1879C26.3075 26.1841 26.2422 26.1366 26.2141 26.0627L25.2809 23.6043Z" fill="#264065"/>
</svg>
